# xmcd
#
# Track frame offsets:
#	182
#	13437
#	23127
#	33775
#	45772
#	59667
#	76790
#	89280
#	104727
#	118282
#	130685
#	148665
#	162430
#	176217
#	192415
#	207987
#	221690
#	238327
#	252927
#	264620
#
# Disc length: 3777 seconds
#
# Revision: 2
# Processed by: cddbd v1.4PL0 Copyright (c) Steve Scherf et al.
# Submitted via: audiograbber 1.80.04
#
DISCID=2b0ebf14
DTITLE=Dolly Parton - Gold
DYEAR=1995
DGENRE=Country
TTITLE0=I Will Always Love You
TTITLE1=If Teradrops Were Pennies
TTITLE2=Love Is Like A Buterfly
TTITLE3=Jolene
TTITLE4=Coat Of Many Colours
TTITLE5=Real Love
TTITLE6=9-5
TTITLE7=Old Flames Can't Hold A Candle To You
TTITLE8=Comin' For To Carry Me Home
TTITLE9=DIVORCE
TTITLE10=Starting Over Again
TTITLE11=The Seeker
TTITLE12=Just Because I'm A Woman
TTITLE13=Heartbreaker
TTITLE14=Applejack
TTITLE15=My Tenessee Mountain Home
TTITLE16=She Don't Love You (Like I Love You)
TTITLE17=Harper Valley PTA
TTITLE18=The Last Thing On My Mind
TTITLE19=Islands In The Stream
EXTD=
EXTT0=
EXTT1=
EXTT2=
EXTT3=
EXTT4=
EXTT5=
EXTT6=
EXTT7=
EXTT8=
EXTT9=
EXTT10=
EXTT11=
EXTT12=
EXTT13=
EXTT14=
EXTT15=
EXTT16=
EXTT17=
EXTT18=
EXTT19=
PLAYORDER=
